<?xml version="1.0" encoding="utf-8"?>
<!-- Generator: Adobe Illustrator 15.0.1, SVG Export Plug-In . SVG Version: 6.00 Build 0)  -->
<!DOCTYPE svg PUBLIC "-//W3C//DTD SVG 1.1//EN" "http://www.w3.org/Graphics/SVG/1.1/DTD/svg11.dtd">
<svg version="1.1" id="Layer_1" xmlns="http://www.w3.org/2000/svg" xmlns:xlink="http://www.w3.org/1999/xlink" x="0px" y="0px"
	 width="450px" height="135.89px" viewBox="-0.001 -7.549 450 135.89" enable-background="new -0.001 -7.549 450 135.89"
	 xml:space="preserve">
<path fill="#0066B3" d="M425.022,68.512c4.04-0.444,10.394,1.525,14.555,3.694c10.101,5.222,13.227,15.613,7.76,26.009
	c-2.637,4.999-4.408,7.904-6.649,12.092c-2.538,5.001-4.041,7.758-6.306,13.055l-1.651,3.817c0,0-9.408-4.899-13.521-6.97
	c-1.995-1.034-2.389-2.919-2.217-4.359c0.074-1.403,0.689-2.782,1.232-3.792l11.403-21.822c1.748-3.275,0.615-4.949-1.649-6.108
	c-1.85-0.959-6.479-2.339-9.436-1.034l-11.795,22.584c-0.789,1.478-1.75,2.884-2.884,3.732c-1.354,0.973-3.029,1.269-4.802,0.306
	l-12.242-6.353l23.597-45.071l10.196,5.295c0.589,0.297,1.155,0.59,1.648,0.912c0.592,0.319,1.108,0.689,1.554,1.232
	C424.578,66.49,425.022,67.453,425.022,68.512"/>
<path fill="#0066B3" d="M342.981,65.853c2.191-5.224,11.602-29.212,11.602-29.212s7.562,2.894,11.698,4.605
	c2.143,0.888,2.39,2.858,2.289,4.163c-0.195,1.355-0.786,2.759-1.182,3.695c-3.495,8.289-7.955,20.073-9.063,22.832
	c-1.354,3.226,2.636,6.279,5.295,7.365c3.251,1.255,7.486,1.773,8.841-1.798l11.698-29.236c0,0,8.596,3.3,12.759,5.024
	c2.043,0.813,2.463,2.76,2.438,4.139c-0.048,1.403-0.518,2.832-0.91,3.867l-9.114,22.831c-4.311,10.887-9.655,18.275-31.502,9.704
	C340.91,87.132,338.401,76.823,342.981,65.853"/>
<path fill="#0066B3" d="M318.771,18.07c-7.883-1.058-9.236,1.773-9.357,3.067c-0.199,1.195-0.148,2.007,0.59,3.152
	c0.936,1.244,2.857,2.918,7.068,5.382l6.626,4.076c11.181,6.588,16.23,14.592,14.703,26.243
	c-2.044,15.344-17.684,22.511-33.249,20.393c-9.188-1.157-17.268-3.939-23.94-8.201l-3.572-2.241c0,0,3.892-6.478,5.813-10.099
	c1.402-2.562,3.643-3.301,5.515-3.152c1.701,0.197,3.08,1.01,3.424,1.219c4.311,2.599,9.236,4.421,14.509,5.086
	c7.413,1.034,9.531-2.093,9.776-3.793c0.395-2.931,0.247-5.049-7.242-9.359l-7.882-4.63c-9.9-6.182-15.073-14.409-13.595-25.294
	C289.78,6.494,304.162-1.51,320.418,0.645c8.499,1.121,14.901,3.017,20.763,6.822l3.498,2.229l-6.109,10.788
	c0,0-0.54,0.444-0.96,0.739c-0.369,0.246-0.961,0.542-1.649,0.837c-1.28,0.542-3.253,0.961-5.32,0
	C326.062,19.869,323.351,18.636,318.771,18.07"/>
<path fill="#0066B3" d="M251.852,40.016l-1.525-0.172l0.738-6.305c0.369-3.325,2.831-4.779,5.319-4.52l17.413,2.057l3.521,0.394
	l-0.738,6.256c-0.419,3.35-2.783,4.828-5.271,4.556C271.31,42.281,256.113,40.434,251.852,40.016"/>
<path fill="#0066B3" d="M174.614,50.287c-3.867-13.991-17.142-23.004-29.974-19.483c-3.917,1.059-7.265,3.177-9.901,5.96
	l-0.074-0.122c-0.813-0.986-2.192-1.75-4.162-1.257l-13.325,3.227l1.896,7.044l4.68,16.872l0.861,3.397l2.784,9.805l7.018,25.392
	c0.739,2.883,3.129,4.778,6.06,3.941l8.004-2.217c3.891-1.035,4.236-4.471,3.572-6.871c-1.354-4.926-2.588-9.608-3.72-13.522
	c3.448,0.763,6.994,0.763,10.491-0.222C171.658,78.733,178.506,64.278,174.614,50.287z M153.432,68.856
	c-5.024,1.355-10.762-1.183-12.857-8.769c-2.093-7.66,1.625-12.783,6.478-14.162c4.878-1.305,10.937,1.158,13.03,8.818
	C162.226,62.184,158.308,67.527,153.432,68.856z"/>
<path fill="#0066B3" d="M216.461,3.194c-0.149-5.813,4.16-10.468,10.587-10.738c6.354-0.172,10.912,4.237,11.087,10
	c0.246,5.861-4.016,10.689-10.468,10.937C221.213,13.588,216.681,9.081,216.461,3.194"/>
<path fill="#0066B3" d="M238.699,71.271c-0.564,1.429-1.772,2.758-3.916,2.807c-5.221,0.197-14.876,0.493-14.876,0.493
	s-0.911-31.822-1.403-47.979c-0.072-2.709,2.267-6.035,6.035-6.159l13.176-0.468c0,0,1.182,38.816,1.453,47.953
	C239.168,68.635,239.168,70.038,238.699,71.271"/>
<path fill="#0066B3" d="M210.648,19.203l3.322,1.108l-2.634,19.655l-4.236-0.689c-1.38-0.247-2.366-0.295-3.77-0.023
	c-2.044,0.282-5.542,3.152-5.024,6.478l3.792,24.089c0.518,3.2-1.575,5.885-4.728,6.377l-14.088,2.206l-7.709-48.927
	c-0.541-3.374,2.018-5.345,4.433-5.702l12.732-2.032l0.862,2.882c2.685-3.08,6.036-5.063,9.655-5.579
	C205.845,18.563,208.111,18.416,210.648,19.203"/>
<path fill="#0066B3" d="M29.423,47.897c9.188-3.301,14.68-4.089,21.207-3.868c2.462,0.123,5.518,0.751,5.615,5.197
	c0.024,2.513,0.024,5.468,0,7.685c-0.074,3.634-3.326,5.418-6.97,5.171c-4.211-0.023-8.67,0.592-13.004,2.192
	c-12.783,4.631-18.399,15.122-13.177,29.334c4.927,13.545,16.847,18.521,28.325,14.458c5.935-2.168,8.545-4.015,12.683-8.633
	c3.374-3.807,6.132-1.418,7.265-0.235c2.856,2.834,3.203,3.474,5.838,6.381c1.944,2.118,0.713,5.271-0.396,6.478
	c-5.074,5.688-11.847,9.961-21.305,13.374c-21.92,7.856-44.555-0.395-52.56-22.364C-6.191,77.944,6.838,56.024,29.423,47.897"/>
<path fill="#0066B3" d="M117.918,70.259l-1.206-3.325c-3.843-10.91-8.203-22.929-8.203-22.929l-12.881,4.531
	c-1.947,0.615-2.684,2.094-2.709,3.498c-3.792-0.739-7.758-0.542-11.527,0.788c-12.586,4.385-18.324,19.334-13.498,32.943
	c4.829,13.705,18.694,21.76,31.28,17.376c3.743-1.33,6.92-3.622,9.384-6.601l0.246,0.295c0.861,0.909,2.364,1.674,4.261,0.96
	l12.932-4.508C125.997,93.287,121.686,81.219,117.918,70.259z M96.021,89.028c-4.827,1.675-11.032-0.469-13.668-7.832
	c-2.61-7.389,0.887-12.907,5.69-14.604c4.751-1.676,10.812,0.442,13.421,7.929C104.1,81.984,100.824,87.341,96.021,89.028z"/>
</svg>
